HIERARCHY
ROOT Hips
{
	OFFSET 0.000000 83.214638 0.000000
	CHANNELS 6 Xposition Yposition Zposition Xrotation Yrotation Zrotation
	JOINT Pelvis
	{
		OFFSET 0.000000 0.000000 0.000000
		CHANNELS 3 Xrotation Yrotation Zrotation
		JOINT LeftUpLeg
		{
			OFFSET 8.479700 -4.795502 -0.379100
			CHANNELS 3 Xrotation Yrotation Zrotation
			JOINT LeftLeg
			{
				OFFSET 0.024144 -32.555107 0.112900
				CHANNELS 3 Xrotation Yrotation Zrotation
				JOINT LeftFoot
				{
					OFFSET -0.024144 -32.638630 -3.012600
					CHANNELS 3 Xrotation Yrotation Zrotation
					JOINT LeftToeBase
					{
						OFFSET 0.970200 -13.225400 11.864200
						CHANNELS 3 Xrotation Yrotation Zrotation
						End Site
						{
							OFFSET 0.000000 12.319262 0.000000
						}
					}
					JOINT LFootTongue
					{
						OFFSET 1.142400 -1.059800 6.665200
						CHANNELS 3 Xrotation Yrotation Zrotation
						End Site
						{
							OFFSET 0.000000 12.319262 0.000000
						}
					}
				}
				JOINT LeftPantLeg
				{
					OFFSET 0.918482 -16.533964 -2.284700
					CHANNELS 3 Xrotation Yrotation Zrotation
					End Site
					{
						OFFSET 0.350399 24.744368 0.000000
					}
				}
			}
		}
		JOINT RightUpLeg
		{
			OFFSET -8.479700 -4.795502 -0.379100
			CHANNELS 3 Xrotation Yrotation Zrotation
			JOINT RightLeg
			{
				OFFSET -0.023144 -32.555092 0.112900
				CHANNELS 3 Xrotation Yrotation Zrotation
				JOINT RightFoot
				{
					OFFSET 0.023144 -32.638641 -3.012700
					CHANNELS 3 Xrotation Yrotation Zrotation
					JOINT RightToeBase
					{
						OFFSET -0.970200 -13.225400 11.864200
						CHANNELS 3 Xrotation Yrotation Zrotation
						End Site
						{
							OFFSET 0.000000 12.319244 0.000000
						}
					}
					JOINT RFootTongue
					{
						OFFSET -1.142200 -1.059800 6.665200
						CHANNELS 3 Xrotation Yrotation Zrotation
						End Site
						{
							OFFSET 0.000000 12.319243 0.000000
						}
					}
				}
				JOINT RightPantLeg
				{
					OFFSET -0.919482 -16.533978 -2.284800
					CHANNELS 3 Xrotation Yrotation Zrotation
					End Site
					{
						OFFSET -0.350400 24.744419 0.000000
					}
				}
			}
		}
	}
	JOINT Spine
	{
		OFFSET 0.000000 7.722000 1.166200
		CHANNELS 3 Xrotation Yrotation Zrotation
		JOINT Spine1
		{
			OFFSET 0.000000 12.024101 0.248800
			CHANNELS 3 Xrotation Yrotation Zrotation
			JOINT Spine2
			{
				OFFSET 0.000000 11.502998 -0.491200
				CHANNELS 3 Xrotation Yrotation Zrotation
				JOINT Neck
				{
					OFFSET 0.000000 18.430702 -3.123100
					CHANNELS 3 Xrotation Yrotation Zrotation
					JOINT Head
					{
						OFFSET 0.000000 9.051102 1.034000
						CHANNELS 3 Xrotation Yrotation Zrotation
						JOINT HairB
						{
							OFFSET 0.208400 24.786102 24.822300
							CHANNELS 3 Xrotation Yrotation Zrotation
							End Site
							{
								OFFSET 0.000000 32.263779 0.000000
							}
						}
						JOINT HairA
						{
							OFFSET -7.081100 24.428299 23.196600
							CHANNELS 3 Xrotation Yrotation Zrotation
							End Site
							{
								OFFSET 0.000000 32.263779 0.000000
							}
						}
						JOINT Hat
						{
							OFFSET 16.728800 15.048294 -15.439601
							CHANNELS 3 Xrotation Yrotation Zrotation
							End Site
							{
								OFFSET 0.000000 32.263779 0.000000
							}
						}
					}
				}
				JOINT LeftShoulder
				{
					OFFSET 6.197800 13.665199 -4.064700
					CHANNELS 3 Xrotation Yrotation Zrotation
					JOINT LeftArm
					{
						OFFSET 7.778100 -0.187103 -1.709300
						CHANNELS 3 Xrotation Yrotation Zrotation
						JOINT LeftForeArm
						{
							OFFSET 22.049376 0.000000 0.000000
							CHANNELS 3 Xrotation Yrotation Zrotation
							JOINT LeftHand
							{
								OFFSET 23.009392 0.000000 0.000000
								CHANNELS 3 Xrotation Yrotation Zrotation
								JOINT LeftHandThumb1
								{
									OFFSET 3.507191 -2.063065 3.133727
									CHANNELS 3 Xrotation Yrotation Zrotation
									JOINT LeftHandThumb2
									{
										OFFSET 3.101337 -1.790558 1.790558
										CHANNELS 3 Xrotation Yrotation Zrotation
										JOINT LeftHandThumb3
										{
											OFFSET 3.058640 -1.765907 1.765906
											CHANNELS 3 Xrotation Yrotation Zrotation
											End Site
											{
												OFFSET -0.415260 3.926476 -0.049563
											}
										}
									}
								}
								JOINT LeftHandIndex1
								{
									OFFSET 11.334419 -0.901459 3.706815
									CHANNELS 3 Xrotation Yrotation Zrotation
									JOINT LeftHandIndex2
									{
										OFFSET 3.283112 0.000000 0.000000
										CHANNELS 3 Xrotation Yrotation Zrotation
										JOINT LeftHandIndex3
										{
											OFFSET 3.323853 0.000000 0.000000
											CHANNELS 3 Xrotation Yrotation Zrotation
											End Site
											{
												OFFSET -1.135597 3.097809 0.402452
											}
										}
									}
								}
								JOINT LeftHandMiddle1
								{
									OFFSET 11.335861 0.000000 0.000000
									CHANNELS 3 Xrotation Yrotation Zrotation
									JOINT LeftHandMiddle2
									{
										OFFSET 3.410492 0.000000 0.000000
										CHANNELS 3 Xrotation Yrotation Zrotation
										JOINT LeftHandMiddle3
										{
											OFFSET 3.312172 0.000000 0.000000
											CHANNELS 3 Xrotation Yrotation Zrotation
											End Site
											{
												OFFSET -1.150200 3.080154 0.400270
											}
										}
									}
								}
								JOINT LeftHandRing1
								{
									OFFSET 11.514786 -0.013176 -3.003090
									CHANNELS 3 Xrotation Yrotation Zrotation
									JOINT LeftHandRing2
									{
										OFFSET 3.053307 0.000000 0.000000
										CHANNELS 3 Xrotation Yrotation Zrotation
										JOINT LeftHandRing3
										{
											OFFSET 3.295807 0.000000 0.000000
											CHANNELS 3 Xrotation Yrotation Zrotation
											End Site
											{
												OFFSET -1.281006 3.013344 0.375733
											}
										}
									}
								}
								JOINT LeftHandPinky1
								{
									OFFSET 10.518692 -0.960396 -5.730441
									CHANNELS 3 Xrotation Yrotation Zrotation
									JOINT LeftHandPinky2
									{
										OFFSET 2.861649 0.000000 0.000000
										CHANNELS 3 Xrotation Yrotation Zrotation
										JOINT LeftHandPinky3
										{
											OFFSET 2.863380 0.000000 0.000000
											CHANNELS 3 Xrotation Yrotation Zrotation
											End Site
											{
												OFFSET -0.843597 2.711159 0.369971
											}
										}
									}
								}
							}
							JOINT LSleeve
							{
								OFFSET 6.676277 -0.344902 -1.011730
								CHANNELS 3 Xrotation Yrotation Zrotation
								End Site
								{
									OFFSET 0.000000 14.885353 0.000000
								}
							}
						}
					}
				}
				JOINT RightShoulder
				{
					OFFSET -6.197800 13.665199 -4.064700
					CHANNELS 3 Xrotation Yrotation Zrotation
					JOINT RightArm
					{
						OFFSET -7.778100 -0.187103 -1.709300
						CHANNELS 3 Xrotation Yrotation Zrotation
						JOINT RightForeArm
						{
							OFFSET -22.049376 0.000000 0.000000
							CHANNELS 3 Xrotation Yrotation Zrotation
							JOINT RightHand
							{
								OFFSET -23.009392 0.000000 0.000000
								CHANNELS 3 Xrotation Yrotation Zrotation
								JOINT RightHandThumb1
								{
									OFFSET -3.507191 -2.063065 3.133727
									CHANNELS 3 Xrotation Yrotation Zrotation
									JOINT RightHandThumb2
									{
										OFFSET -3.101337 -1.790558 1.790558
										CHANNELS 3 Xrotation Yrotation Zrotation
										JOINT RightHandThumb3
										{
											OFFSET -3.058640 -1.765907 1.765906
											CHANNELS 3 Xrotation Yrotation Zrotation
											End Site
											{
												OFFSET 0.415260 3.926476 -0.049563
											}
										}
									}
								}
								JOINT RightHandIndex1
								{
									OFFSET -11.334419 -0.901459 3.706815
									CHANNELS 3 Xrotation Yrotation Zrotation
									JOINT RightHandIndex2
									{
										OFFSET -3.283112 0.000000 0.000000
										CHANNELS 3 Xrotation Yrotation Zrotation
										JOINT RightHandIndex3
										{
											OFFSET -3.323853 0.000000 0.000000
											CHANNELS 3 Xrotation Yrotation Zrotation
											End Site
											{
												OFFSET 1.135597 3.097809 0.402452
											}
										}
									}
								}
								JOINT RightHandMiddle1
								{
									OFFSET -11.335861 0.000000 0.000000
									CHANNELS 3 Xrotation Yrotation Zrotation
									JOINT RightHandMiddle2
									{
										OFFSET -3.410492 0.000000 0.000000
										CHANNELS 3 Xrotation Yrotation Zrotation
										JOINT RightHandMiddle3
										{
											OFFSET -3.312172 0.000000 0.000000
											CHANNELS 3 Xrotation Yrotation Zrotation
											End Site
											{
												OFFSET 1.150200 3.080154 0.400270
											}
										}
									}
								}
								JOINT RightHandRing1
								{
									OFFSET -11.514786 -0.013176 -3.003090
									CHANNELS 3 Xrotation Yrotation Zrotation
									JOINT RightHandRing2
									{
										OFFSET -3.053307 0.000000 0.000000
										CHANNELS 3 Xrotation Yrotation Zrotation
										JOINT RightHandRing3
										{
											OFFSET -3.295807 0.000000 0.000000
											CHANNELS 3 Xrotation Yrotation Zrotation
											End Site
											{
												OFFSET 1.281006 3.013344 0.375733
											}
										}
									}
								}
								JOINT RightHandPinky1
								{
									OFFSET -10.518692 -0.960396 -5.730441
									CHANNELS 3 Xrotation Yrotation Zrotation
									JOINT RightHandPinky2
									{
										OFFSET -2.861649 0.000000 0.000000
										CHANNELS 3 Xrotation Yrotation Zrotation
										JOINT RightHandPinky3
										{
											OFFSET -2.863380 0.000000 0.000000
											CHANNELS 3 Xrotation Yrotation Zrotation
											End Site
											{
												OFFSET 0.843597 2.711159 0.369971
											}
										}
									}
								}
							}
							JOINT RSleeve
							{
								OFFSET -6.676277 -0.344902 -1.011730
								CHANNELS 3 Xrotation Yrotation Zrotation
								End Site
								{
									OFFSET 0.000000 14.885353 0.000000
								}
							}
						}
					}
				}
				JOINT Backpack
				{
					OFFSET 0.000000 -2.471497 36.677502
					CHANNELS 3 Xrotation Yrotation Zrotation
					End Site
					{
						OFFSET 0.000000 20.427315 0.000000
					}
				}
				JOINT Hood
				{
					OFFSET 0.000000 18.754097 -10.431000
					CHANNELS 3 Xrotation Yrotation Zrotation
					JOINT Hood1
					{
						OFFSET 0.000000 -5.011002 -7.685901
						CHANNELS 3 Xrotation Yrotation Zrotation
						End Site
						{
							OFFSET 0.000000 9.175140 0.000000
						}
					}
				}
				JOINT LHoodieString
				{
					OFFSET 5.250500 16.397697 3.089900
					CHANNELS 3 Xrotation Yrotation Zrotation
					JOINT LHoodieString1
					{
						OFFSET 0.257700 -6.364304 3.694600
						CHANNELS 3 Xrotation Yrotation Zrotation
						JOINT LHoodieString2
						{
							OFFSET 0.000000 -9.643799 2.679100
							CHANNELS 3 Xrotation Yrotation Zrotation
							End Site
							{
								OFFSET 0.000000 10.009018 0.000000
							}
						}
					}
				}
				JOINT RHoodieString
				{
					OFFSET -5.250500 16.397697 3.089900
					CHANNELS 3 Xrotation Yrotation Zrotation
					JOINT RHoodieString1
					{
						OFFSET -0.257700 -6.364304 3.694600
						CHANNELS 3 Xrotation Yrotation Zrotation
						JOINT RHoodieString2
						{
							OFFSET 0.000000 -9.643799 2.679100
							CHANNELS 3 Xrotation Yrotation Zrotation
							End Site
							{
								OFFSET 0.000000 10.009018 0.000000
							}
						}
					}
				}
			}
			JOINT LBackpack_Strap
			{
				OFFSET 15.223200 -7.719803 -6.610900
				CHANNELS 3 Xrotation Yrotation Zrotation
				End Site
				{
					OFFSET 0.000000 16.040596 0.000000
				}
			}
			JOINT RBackpack_Strap
			{
				OFFSET -15.223000 -7.719803 -6.610900
				CHANNELS 3 Xrotation Yrotation Zrotation
				End Site
				{
					OFFSET 0.000000 16.040596 0.000000
				}
			}
		}
	}
	JOINT BoyFacialAnim_Joint
	{
		OFFSET 1.000000 -82.208099 -1.550900
		CHANNELS 3 Xrotation Yrotation Zrotation
		End Site
		{
			OFFSET 0.000000 30.012791 0.000000
		}
	}
}
MOTION
Frames: 4
Frame Time: 0.033333
-0.302185 74.601875 0.578187 9.021462 -35.286543 2.395758 0.000001 0.000001 -0.000000 -47.486258 4.153121 22.116651 41.337008 -4.824962 -2.208412 -1.564079 0.544163 -9.165047 0.000000 -0.000002 0.000000 0.000000 -0.000002 0.000000 -0.000000 0.000001 -0.000000 -18.772449 -10.999742 -19.640153 41.991668 -8.188505 -2.858593 -12.943062 -3.825000 23.531969 -0.000000 0.000001 -0.000000 -0.000000 0.000001 -0.000000 0.000001 -0.000001 -0.000003 4.125043 4.144991 4.361855 2.230886 1.589078 0.860509 2.196368 1.665537 0.808229 -1.935445 3.695289 -0.661192 5.162820 18.690258 -7.403650 0.000001 0.000000 -0.000000 0.000001 0.000000 -0.000000 0.000001 0.000000 -0.000000 8.613364 -11.681976 -2.879732 -49.485878 -1.994530 -44.042986 0.000000 -106.004768 0.000006 14.693217 1.385422 4.493970 -10.355870 -18.164541 -0.612237 10.166245 44.439202 3.473529 -0.000001 -0.000004 0.000002 -1.623597 2.464343 -39.970096 4.432929 5.677200 -75.949894 -0.000001 0.000001 -0.000007 2.431929 7.055168 -53.394068 4.432937 5.677181 -75.949894 0.000006 -0.000001 0.000004 6.551744 9.294128 -62.102771 5.321206 5.827112 -84.795419 0.000001 -0.000000 -0.000002 14.702279 10.907124 -74.390295 5.247216 5.819944 -84.066043 0.000002 -0.000001 -0.000000 0.000003 -0.000001 0.000004 4.720333 14.118458 -1.054180 -49.136155 29.769219 70.987631 0.000117 111.725420 -0.000119 2.246870 10.553207 0.371470 -11.269579 20.282839 1.210523 10.083136 -46.337711 -3.955790 -0.000001 0.000000 0.000001 -1.909772 -1.536838 39.260047 3.529759 -4.518948 75.975719 -0.000000 -0.000001 0.000005 1.887737 -5.985910 52.719819 3.529760 -4.518930 75.975739 0.000001 0.000000 0.000003 5.826243 -8.180329 61.423099 4.235961 -4.638127 84.805309 0.000001 -0.000001 0.000000 13.716890 -9.803619 73.678897 4.177153 -4.632446 84.077354 0.000003 -0.000001 -0.000002 0.000001 -0.000004 0.000001 0.000000 -0.000001 0.000002 0.000000 -0.000001 0.000002 0.000000 -0.000001 0.000002 0.000000 -0.000001 0.000002 0.000000 -0.000001 0.000002 0.000001 -0.000001 0.000001 0.000000 -0.000001 0.000002 0.000000 -0.000001 0.000002 0.000001 -0.000001 0.000001 -0.000000 -0.000002 -0.000000 -0.000000 -0.000002 -0.000000 0.000001 0.000001 -0.000000 
-0.261133 74.697166 0.937567 9.322975 -34.089573 2.455983 -0.000000 -0.000000 0.000000 -47.975416 4.472711 21.231976 41.214280 -7.176973 -1.675470 -1.619801 2.043420 -8.781038 -0.000000 -0.000000 -0.000000 -0.000000 -0.000000 -0.000000 -0.000000 0.000001 0.000000 -17.842881 -11.322749 -19.580698 40.798011 -9.312143 -2.700122 -12.486649 -3.802266 24.113949 0.000001 0.000002 -0.000001 0.000001 0.000002 -0.000001 -0.000002 -0.000000 0.000001 4.005871 3.610349 3.738649 2.436600 1.284991 0.653528 2.411988 1.363342 0.605757 -1.580039 3.496744 -0.383171 3.998435 18.318622 -7.252480 0.000002 -0.000000 -0.000000 0.000002 -0.000000 -0.000000 0.000002 -0.000000 -0.000000 8.006110 -9.883831 -3.449620 -45.461490 -2.160945 -43.053015 0.000118 -106.383488 0.000103 16.997887 0.797800 11.483126 -10.159154 -15.942302 0.697855 9.495225 40.337735 4.606348 -0.000001 -0.000002 0.000001 -2.072917 0.734408 -32.811553 3.517067 5.366877 -66.453902 -0.000002 0.000001 -0.000007 1.873139 6.586536 -46.235924 3.517907 5.367236 -66.463034 -0.000000 0.000001 -0.000003 5.876848 9.409351 -55.468533 4.260332 5.631406 -74.198435 -0.000004 0.000002 -0.000002 13.741230 11.894501 -67.714598 4.195135 5.612644 -73.532744 0.000001 0.000000 -0.000000 -0.000000 0.000003 0.000002 4.687363 14.185957 -0.786972 -47.880231 31.505528 69.302979 -0.000094 109.063354 0.000089 1.820703 10.608909 -2.007733 -11.269578 20.282838 1.210522 10.083137 -46.337731 -3.955798 -0.000000 -0.000001 0.000001 -1.909764 -1.536840 39.260037 3.529753 -4.518945 75.975712 0.000000 0.000004 -0.000004 1.887733 -5.985912 52.719805 3.529749 -4.518936 75.975691 -0.000000 -0.000002 -0.000001 5.826243 -8.180334 61.423092 4.235965 -4.638120 84.805295 0.000000 -0.000000 0.000000 13.716891 -9.803625 73.678897 4.177142 -4.632431 84.077313 -0.000002 0.000000 0.000004 0.000001 -0.000004 -0.000003 -0.000000 -0.000001 -0.000000 -0.000000 -0.000001 -0.000000 -0.000000 -0.000001 -0.000000 -0.000000 -0.000001 -0.000000 -0.000000 -0.000001 -0.000001 -0.000001 -0.000002 0.000000 -0.000000 -0.000001 -0.000000 -0.000000 -0.000001 -0.000001 -0.000001 -0.000002 0.000000 -0.000000 -0.000001 -0.000000 -0.000000 -0.000001 -0.000000 -0.000000 -0.000000 0.000000 
-0.311678 74.776955 1.541744 9.380884 -31.989994 2.001965 0.000000 0.000002 -0.000000 -48.431796 4.211166 20.050983 41.473025 -9.762631 -1.061837 -1.918826 3.426034 -8.303197 -0.000000 -0.000000 0.000000 -0.000000 -0.000000 0.000000 -0.000000 0.000003 0.000001 -15.794386 -12.123088 -19.341094 39.022701 -11.214805 -1.979987 -11.891374 -3.759081 24.832801 0.000000 0.000000 -0.000001 0.000000 0.000000 -0.000001 -0.000000 0.000001 -0.000001 3.736426 2.992212 3.012846 2.478782 0.913070 0.380613 2.465249 0.992012 0.337875 -1.222816 3.146122 0.158266 3.051938 17.527869 -6.654861 0.000001 -0.000000 -0.000000 0.000001 -0.000000 -0.000000 0.000001 -0.000000 -0.000000 7.276485 -6.945732 -4.424981 -35.060748 -4.469157 -42.183928 0.000191 -103.688781 0.000184 19.032950 0.833205 21.360063 -9.844971 -10.866270 3.757104 8.052918 30.857603 6.996088 0.000001 -0.000000 0.000001 -1.768130 -3.281722 -16.231383 1.685162 4.112176 -44.552863 0.000001 -0.000000 -0.000002 0.837359 5.267190 -29.737090 1.687577 4.114613 -44.586543 0.000001 -0.000002 0.000002 4.127248 9.285004 -40.117775 2.074938 4.472673 -49.757088 -0.000002 0.000004 -0.000003 10.650650 13.420027 -52.079373 2.036105 4.439592 -49.257074 -0.000002 -0.000003 0.000001 -0.000001 0.000002 0.000004 4.610890 14.294527 -0.119634 -45.368558 32.997966 67.044795 0.000172 105.215820 -0.000169 2.698923 9.632597 -4.398594 -11.269578 20.282838 1.210521 10.083133 -46.337714 -3.955797 -0.000001 0.000001 0.000001 -1.909775 -1.536842 39.260040 3.529762 -4.518960 75.975725 -0.000001 0.000002 -0.000001 1.887743 -5.985912 52.719816 3.529756 -4.518938 75.975732 0.000006 -0.000002 0.000001 5.826241 -8.180338 61.423092 4.235954 -4.638132 84.805323 -0.000003 -0.000002 -0.000000 13.716898 -9.803614 73.678897 4.177145 -4.632428 84.077320 -0.000001 0.000003 0.000001 -0.000002 -0.000001 -0.000000 0.000001 -0.000000 -0.000000 0.000001 -0.000000 -0.000000 0.000001 -0.000000 -0.000000 0.000001 -0.000000 -0.000000 0.000001 -0.000000 -0.000000 0.000001 -0.000002 0.000000 0.000001 -0.000000 -0.000000 0.000001 -0.000000 -0.000000 0.000001 -0.000002 0.000000 -0.000000 -0.000001 0.000001 -0.000000 -0.000001 0.000001 0.000000 0.000002 -0.000000 
-0.488763 74.659279 2.624007 8.396747 -28.578119 0.669341 -0.000000 -0.000000 -0.000000 -49.589946 4.206053 18.146718 44.437122 -9.648545 -0.194819 -1.782549 9.833183 -7.466196 0.000000 0.000001 -0.000000 0.000000 0.000001 0.000000 -0.000000 -0.000001 0.000000 -11.522130 -13.640917 -18.704828 36.716437 -11.186311 -0.802696 -11.457641 -6.561227 25.259704 -0.000000 0.000001 -0.000000 -0.000000 0.000001 -0.000000 0.000001 0.000001 0.000001 3.345251 2.414136 2.299613 2.363279 0.623824 0.140124 2.359221 0.701357 0.103731 -0.665914 2.518665 0.811216 2.676889 15.454037 -5.644859 0.000002 0.000001 -0.000000 0.000002 0.000001 -0.000000 0.000002 0.000001 -0.000000 6.491948 -4.197588 -5.979841 -17.928173 -7.908008 -40.720837 0.003851 -94.272600 0.003828 17.863236 3.442621 31.305414 -9.712570 -5.288991 7.269936 6.498084 20.242456 9.367682 -0.000004 -0.000002 -0.000001 0.563067 -7.094155 2.615044 0.358726 2.020307 -20.134805 0.000003 -0.000003 -0.000004 0.178340 3.512374 -11.321760 0.360145 2.024162 -20.174984 0.000003 -0.000001 0.000003 2.125694 8.372810 -22.950959 0.446864 2.246005 -22.502304 -0.000002 -0.000001 -0.000001 6.415532 13.343707 -34.388473 0.436928 2.221871 -22.247518 -0.000001 0.000003 -0.000003 0.000002 -0.000003 -0.000002 4.526464 14.401495 0.615964 -43.147384 33.842539 65.385032 -0.000317 101.122310 0.000310 4.800385 4.957785 -5.909018 -11.269575 20.282836 1.210526 10.083125 -46.337742 -3.955799 -0.000001 -0.000001 0.000003 -1.909779 -1.536843 39.260047 3.529763 -4.518951 75.975719 -0.000004 0.000000 0.000005 1.887732 -5.985916 52.719833 3.529753 -4.518926 75.975684 0.000001 0.000002 -0.000002 5.826234 -8.180330 61.423099 4.235969 -4.638132 84.805316 -0.000001 0.000002 -0.000001 13.716897 -9.803625 73.678903 4.177142 -4.632432 84.077327 0.000001 -0.000002 -0.000002 0.000000 -0.000002 -0.000001 0.000001 0.000000 0.000000 0.000001 0.000000 0.000000 0.000001 0.000000 0.000000 0.000001 0.000000 0.000000 0.000001 0.000000 0.000001 0.000001 0.000000 0.000001 0.000001 0.000000 0.000000 0.000001 0.000000 0.000001 0.000001 0.000000 0.000001 0.000000 -0.000001 0.000000 0.000000 -0.000001 0.000000 -0.000000 -0.000000 -0.000000 
